<svg width="725" height="596" viewBox="0 0 725 596" fill="none" xmlns="http://www.w3.org/2000/svg">
<path d="M742 553.793H0V555.518H742V553.793Z" fill="#3F3D56"/>
<path d="M465.545 258.461C465.545 258.461 432.264 284.596 448.904 290.536C465.545 296.476 476.243 269.153 476.243 269.153L465.545 258.461Z" fill="#FFB8B8"/>
<path d="M466.734 248.957L459.602 260.837C459.602 260.837 471.488 260.837 473.866 278.656L483.375 266.777L466.734 248.957Z" fill="#CFCCE0"/>
<path d="M624.822 519.812L626.011 555.45L611.747 563.765L605.804 560.202L606.992 519.812H624.822Z" fill="#FFB8B8"/>
<path d="M540.429 510.308L542.806 548.322L509.525 562.578L511.902 542.382C511.902 542.382 521.411 526.939 519.034 510.308H540.429Z" fill="#FFB8B8"/>
<path d="M591.54 224.01C591.54 224.01 610.558 273.904 614.124 304.791C617.69 335.678 623.633 417.647 623.633 417.647L635.52 523.375L602.238 528.127L587.974 421.211L555.881 315.483L548.749 421.211L542.806 517.435L511.902 518.623L509.525 418.835L496.45 291.724L503.581 231.138L591.54 224.01Z" fill="#2F2E41"/>
<path d="M609.37 557.826C609.37 557.826 611.319 537.874 625.797 549.038L628.388 547.134L640.274 573.269C640.274 573.269 654.538 593.464 629.576 595.84C604.615 598.216 606.992 573.269 606.992 573.269L604.615 562.578L605.804 555.576L609.37 557.826Z" fill="#2F2E41"/>
<path d="M540.429 534.067C543.355 535.739 545.78 538.163 547.452 541.087C549.124 544.012 549.982 547.33 549.938 550.698C549.938 562.578 548.749 563.766 548.749 563.766L530.92 568.517C530.92 568.517 519.034 567.33 511.902 574.457C504.77 581.585 469.111 586.337 469.111 576.833C469.111 567.33 498.827 551.886 498.827 551.886C498.827 551.886 507.652 536.991 513.937 538.499C520.222 540.007 522.6 542.382 522.6 543.57C522.6 544.758 519.034 553.074 519.034 553.074C519.034 553.074 539.24 548.322 540.429 534.067Z" fill="#2F2E41"/>
<path d="M538.052 77.8918C554.463 77.8918 567.768 64.5951 567.768 48.1929C567.768 31.7907 554.463 18.494 538.052 18.494C521.64 18.494 508.336 31.7907 508.336 48.1929C508.336 64.5951 521.64 77.8918 538.052 77.8918Z" fill="#FFB8B8"/>
<path d="M560.041 55.9146L573.116 85.6135L537.457 136.696C537.457 136.696 535.08 80.8617 527.948 71.358C520.817 61.8544 560.041 55.9146 560.041 55.9146Z" fill="#FFB8B8"/>
<path d="M543.4 117.688L549.344 102.245L554.098 103.433L560.042 98.6808L568.362 72.5461L580.248 80.8616L595.7 236.484L499.421 238.86L512.496 130.756L524.383 99.8692L532.962 88.5328L538.646 105.809L543.4 117.688Z" fill="#CFCCE0"/>
<path d="M570.739 184.214L574.376 76.7537C574.376 76.7537 581.437 77.2978 583.814 80.8617C586.191 84.4256 625.416 91.5533 625.416 91.5533L618.284 202.033C618.284 202.033 648 289.942 637.303 294.694C626.605 299.446 607.587 298.258 607.587 298.258L570.739 184.214Z" fill="#575A89"/>
<path d="M513.09 170.552L525.7 98.1284L497.638 117.094L504.77 169.364L498.827 205.003C498.827 205.003 476.243 303.603 483.375 307.167C490.506 310.731 498.827 307.167 498.827 307.167L513.09 207.379V170.552Z" fill="#575A89"/>
<path d="M505.959 114.718L497.638 117.094L494.072 164.613L488.129 206.191L459.602 257.273C459.602 257.273 473.866 247.769 479.809 275.092L511.226 220.426L505.959 114.718Z" fill="#575A89"/>
<path d="M598.672 248.957C598.672 248.957 565.39 275.092 582.031 281.032C598.672 286.972 609.37 259.649 609.37 259.649L598.672 248.957Z" fill="#FFB8B8"/>
<path d="M618.879 262.025L608.181 275.092L593.918 250.145L599.86 239.454L618.879 262.025Z" fill="#CFCCE0"/>
<path d="M616.501 95.7111L626.01 90.9593C626.01 90.9593 633.142 100.463 634.331 108.779C635.519 117.094 641.463 127.786 641.463 133.726C641.463 139.665 658.104 195.499 658.104 195.499L620.067 272.717C620.067 272.717 611.747 244.206 593.917 241.83L623.633 200.251L606.992 170.552L616.501 95.7111Z" fill="#575A89"/>
<path d="M562.928 19.8962L568.532 17.6541C568.532 17.6541 556.815 4.76216 540.514 5.88325L545.099 0.838517C545.099 0.838517 533.892 -3.64561 523.703 8.12527C518.347 14.313 512.151 21.5863 508.288 29.7796H502.287L504.791 35.2913L496.025 40.8031L505.023 39.8131C504.486 42.8314 504.404 45.9128 504.778 48.9553C505.164 51.9989 506.718 54.7734 509.113 56.6935C509.113 56.6935 516.062 42.317 516.062 40.0749V45.6801C516.062 45.6801 521.666 40.6354 521.666 37.2723L524.722 41.196L526.25 35.0302L545.099 41.196L542.042 36.1513L553.759 37.8328L549.174 31.6671C549.174 31.6671 562.419 38.9538 562.928 45.1196C563.438 51.2852 567.315 57.1276 567.315 57.1276C567.315 57.1276 577.701 28.304 562.928 19.8962Z" fill="#2F2E41"/>
<path d="M562.419 47.5989C564.257 47.5989 565.747 45.7374 565.747 43.441C565.747 41.1447 564.257 39.2832 562.419 39.2832C560.581 39.2832 559.091 41.1447 559.091 43.441C559.091 45.7374 560.581 47.5989 562.419 47.5989Z" fill="#FFB8B8"/>
<path d="M137.541 244.844H34.9326V216.108H88.4923L137.541 244.844Z" fill="#FDC9C9"/>
<path d="M34.6508 240.9V324.856H367.847V240.9H34.6508ZM164.603 310.769H56.3564V298.936H164.603V310.769ZM346.141 288.794H56.3564V276.961H346.141V288.794ZM346.141 266.819H56.3564V254.986H346.141V266.819Z" fill="#3F3D56"/>
<path d="M137.541 109.05H34.9326V80.3129H88.4923L137.541 109.05Z" fill="#FDC9C9"/>
<path d="M34.6508 106.796V190.752H367.847V106.796H34.6508ZM164.603 176.665H56.3564V164.832H164.603V176.665ZM227.183 154.69H56.3564V142.857H227.183L227.183 154.69ZM346.141 132.715H56.3565V120.882H346.141V132.715Z" fill="#3F3D56"/>
<path d="M137.541 377.821H34.9326V349.085H88.4923L137.541 377.821Z" fill="#FDC9C9"/>
<path d="M34.6508 372.187V456.142H367.847V372.187H34.6508ZM227.183 442.056H56.3564V430.223H227.183V442.056ZM227.183 420.081H56.3564V408.248H227.183V420.081ZM346.141 398.106H56.3564V386.273H346.141V398.106Z" fill="#3F3D56"/>
<path d="M462.28 172.158H414.922V124.826H447.058V125.953H416.05V171.031H461.153V148.492H462.28V172.158Z" fill="#3F3D56"/>
<path d="M438.357 159.812C437.263 156.582 423.539 145.604 431.949 143.759L438.845 152.949L470.552 121.261L473.741 124.448L438.357 159.812Z" fill="#6C63FF"/>
<path d="M462.28 306.261H414.922V258.93H447.058V260.058H416.05V305.135H461.153V282.596H462.28V306.261Z" fill="#3F3D56"/>
<path d="M438.357 293.916C437.263 290.686 423.539 279.708 431.949 277.863L438.845 287.053L470.552 255.365L473.741 258.552L438.357 293.916Z" fill="#6C63FF"/>
<path d="M462.28 439.802H414.922V392.471H447.058V393.598H416.05V438.675H461.153V416.136H462.28V439.802Z" fill="#3F3D56"/>
<path d="M438.357 427.457C437.263 424.227 423.539 413.249 431.949 411.403L438.845 420.594L470.552 388.906L473.741 392.093L438.357 427.457Z" fill="#6C63FF"/>
</svg>
