<svg width="640" height="617" viewBox="0 0 640 617" fill="none" xmlns="http://www.w3.org/2000/svg">
<path d="M23.1048 346.116C-45.5476 414.17 59.0879 538.858 154.184 556.118C350.335 591.719 341.069 390.261 375.712 387.245C410.356 384.23 414.225 484.876 394.576 528.053C374.927 571.23 407.454 590.845 483.091 606.925C558.728 623.005 573.926 619.342 606.915 582.731C649.071 535.946 579.49 485.865 584.181 423.052C588.915 359.681 662.862 322.277 631.099 267.244C606.641 224.867 537.894 257.446 518.4 212.566C496.899 163.066 584.175 137.191 571.122 84.8228C553.206 12.9468 459.273 -20.4057 394.576 15.6285C333.214 49.8056 421.474 196.636 351.528 190.308C302.878 185.906 314.28 114.313 268.818 96.4358C170.661 57.8387 221.9 314.18 214.645 361.116C207.389 408.052 76.401 293.284 23.1048 346.116Z" fill="#0026CA" fill-opacity="0.81" stroke="white"/>
</svg>
