<?xml version="1.0" standalone="no"?>
<svg viewBox="0 0 200 200" xmlns="http://www.w3.org/2000/svg">
  <path fill="#0026CA" d="M36.7,-58.5C47.8,-49.9,57.1,-40.2,62.5,-28.5C67.9,-16.9,69.2,-3.4,69.5,11.5C69.7,26.4,68.8,42.6,60.6,53.1C52.4,63.6,36.9,68.4,22.3,69.9C7.6,71.5,-6.2,69.9,-21.9,68.2C-37.6,66.6,-55.2,64.8,-66,55.5C-76.8,46.1,-80.8,29.2,-79.6,13.6C-78.5,-1.9,-72.3,-16.1,-64.5,-28C-56.8,-39.9,-47.4,-49.6,-36.4,-58.2C-25.4,-66.9,-12.7,-74.4,0,-74.5C12.8,-74.5,25.6,-67.1,36.7,-58.5Z" transform="translate(100 100)" />
</svg>
